REM DIRINDEX 1\2\6,1\2\7,1\2\8,1\2\9,1\3\10,1\3\11,1\4\12,1\4\13,1\4\14,1\5\15,1\5\16,1\5\17
REM DIRNAME folder01,folder02,folder03,folder04,folder05,folder06,folder07,folder08,folder09,folder10,folder11,folder12,folder13,folder14,folder15,folder16,folder17
TITLE ""
FILE "1900_2_sec02_0116_0131.mp3" MP3
  TRACK 01 AUDIO
    TITLE "0:"
    INDEX 01 00:00:00
  TRACK 02 AUDIO
    TITLE "13:cjc020_2320"
    INDEX 01 00:00:19
  TRACK 03 AUDIO
    TITLE "0:"
    INDEX 01 00:01:34
  TRACK 04 AUDIO
    TITLE "14:cjc020_2321"
    INDEX 01 00:01:40
  TRACK 05 AUDIO
    TITLE "0:"
    INDEX 01 00:05:46
  TRACK 06 AUDIO
    TITLE "13:cjc020_2322"
    INDEX 01 00:06:24
  TRACK 07 AUDIO
    TITLE "0:"
    INDEX 01 00:07:19
  TRACK 08 AUDIO
    TITLE "14:cjc020_2323"
    INDEX 01 00:07:25
  TRACK 09 AUDIO
    TITLE "0:"
    INDEX 01 00:11:07
  TRACK 10 AUDIO
    TITLE "13:cjc020_2324"
    INDEX 01 00:11:60
  TRACK 11 AUDIO
    TITLE "0:"
    INDEX 01 00:13:22
  TRACK 12 AUDIO
    TITLE "14:cjc020_2325"
    INDEX 01 00:13:28
  TRACK 13 AUDIO
    TITLE "0:"
    INDEX 01 00:16:10
  TRACK 14 AUDIO
    TITLE "13:cjc020_2326"
    INDEX 01 00:16:65
  TRACK 15 AUDIO
    TITLE "0:"
    INDEX 01 00:18:07
  TRACK 16 AUDIO
    TITLE "14:cjc020_2327"
    INDEX 01 00:18:09
  TRACK 17 AUDIO
    TITLE "0:"
    INDEX 01 00:20:32
  TRACK 18 AUDIO
    TITLE "13:cjc020_2328"
    INDEX 01 00:21:11
  TRACK 19 AUDIO
    TITLE "0:"
    INDEX 01 00:22:38
  TRACK 20 AUDIO
    TITLE "14:cjc020_2329"
    INDEX 01 00:22:44
  TRACK 21 AUDIO
    TITLE "0:"
    INDEX 01 00:25:05
  TRACK 22 AUDIO
    TITLE "13:cjc020_2330"
    INDEX 01 00:25:58
  TRACK 23 AUDIO
    TITLE "0:"
    INDEX 01 00:26:73
  TRACK 24 AUDIO
    TITLE "14:cjc020_2331"
    INDEX 01 00:27:02
  TRACK 25 AUDIO
    TITLE "0:"
    INDEX 01 00:29:05
  TRACK 26 AUDIO
    TITLE "13:cjc020_2332"
    INDEX 01 00:29:58
  TRACK 27 AUDIO
    TITLE "0:"
    INDEX 01 00:30:73
  TRACK 28 AUDIO
    TITLE "14:cjc020_2333"
    INDEX 01 00:31:02
  TRACK 29 AUDIO
    TITLE "0:"
    INDEX 01 00:36:07
  TRACK 30 AUDIO
    TITLE "13:cjc020_2334"
    INDEX 01 00:36:68
  TRACK 31 AUDIO
    TITLE "0:"
    INDEX 01 00:37:71
  TRACK 32 AUDIO
    TITLE "14:cjc020_2335"
    INDEX 01 00:38:00
  TRACK 33 AUDIO
    TITLE "0:"
    INDEX 01 00:40:52
  TRACK 34 AUDIO
    TITLE "13:cjc020_2336"
    INDEX 01 00:41:28
  TRACK 35 AUDIO
    TITLE "0:"
    INDEX 01 00:42:43
  TRACK 36 AUDIO
    TITLE "14:cjc020_2337"
    INDEX 01 00:42:45
  TRACK 37 AUDIO
    TITLE "0:"
    INDEX 01 00:45:30
  TRACK 38 AUDIO
    TITLE "13:cjc020_2338"
    INDEX 01 00:46:11
  TRACK 39 AUDIO
    TITLE "0:"
    INDEX 01 00:47:28
  TRACK 40 AUDIO
    TITLE "14:cjc020_2339"
    INDEX 01 00:47:34
  TRACK 41 AUDIO
    TITLE "0:"
    INDEX 01 00:51:07
  TRACK 42 AUDIO
    TITLE "13:cjc020_2340"
    INDEX 01 00:51:62
  TRACK 43 AUDIO
    TITLE "0:"
    INDEX 01 00:52:71
  TRACK 44 AUDIO
    TITLE "14:cjc020_2341"
    INDEX 01 00:52:73
  TRACK 45 AUDIO
    TITLE "0:"
    INDEX 01 00:55:16
  TRACK 46 AUDIO
    TITLE "13:cjc020_2342"
    INDEX 01 00:56:00
  TRACK 47 AUDIO
    TITLE "0:"
    INDEX 01 00:56:67
  TRACK 48 AUDIO
    TITLE "14:cjc020_2343"
    INDEX 01 00:56:69
  TRACK 49 AUDIO
    TITLE "0:"
    INDEX 01 01:00:31
  TRACK 50 AUDIO
    TITLE "13:cjc020_2344"
    INDEX 01 01:01:13
  TRACK 51 AUDIO
    TITLE "0:"
    INDEX 01 01:02:38
  TRACK 52 AUDIO
    TITLE "14:cjc020_2345"
    INDEX 01 01:02:40
  TRACK 53 AUDIO
    TITLE "0:"
    INDEX 01 01:06:43
  TRACK 54 AUDIO
    TITLE "13:cjc020_2346"
    INDEX 01 01:07:25
  TRACK 55 AUDIO
    TITLE "0:"
    INDEX 01 01:08:44
  TRACK 56 AUDIO
    TITLE "14:cjc020_2347"
    INDEX 01 01:08:46
  TRACK 57 AUDIO
    TITLE "0:"
    INDEX 01 01:09:73
  TRACK 58 AUDIO
    TITLE "13:cjc020_2348"
    INDEX 01 01:10:55
  TRACK 59 AUDIO
    TITLE "0:"
    INDEX 01 01:11:70
  TRACK 60 AUDIO
    TITLE "14:cjc020_2349"
    INDEX 01 01:11:72
  TRACK 61 AUDIO
    TITLE "0:"
    INDEX 01 01:15:64
  TRACK 62 AUDIO
    TITLE "13:cjc020_2350"
    INDEX 01 01:16:44
  TRACK 63 AUDIO
    TITLE "0:"
    INDEX 01 01:17:43
  TRACK 64 AUDIO
    TITLE "14:cjc020_2351"
    INDEX 01 01:17:45
  TRACK 65 AUDIO
    TITLE "0:"
    INDEX 01 01:21:20
